<svg width="32" height="32" viewBox="0 0 32 32" fill="none" xmlns="http://www.w3.org/2000/svg">
<circle cx="16" cy="16" r="16" fill="#101112"/>
<rect width="1.07118" height="0.465071" transform="matrix(-1 0 0 1 20.1489 18.3867)" fill="#868686"/>
<path d="M21.7788 19.8984L20.347 18.4687C20.2378 18.3596 20.0608 18.3596 19.9516 18.4687L19.82 18.6001L21.4495 20.2273L21.7788 19.8984Z" fill="#868686"/>
<rect x="10.2285" y="16.4082" width="2.51494" height="0.465729" fill="#868686"/>
<rect x="11.8589" y="18.3867" width="1.07118" height="0.465729" fill="#868686"/>
<path d="M10.2285 19.9004L11.6604 18.4685C11.7696 18.3593 11.9465 18.3593 12.0556 18.4685L12.1873 18.6002L10.5578 20.2297L10.2285 19.9004Z" fill="#868686"/>
<rect x="19.2637" y="16.4082" width="2.51494" height="0.465729" fill="#868686"/>
<rect x="20.1489" y="14.9443" width="1.39719" height="0.465729" transform="rotate(-180 20.1489 14.9443)" fill="#868686"/>
<path d="M21.7788 13.4307L20.3469 14.8626C20.2378 14.9717 20.0608 14.9717 19.9517 14.8626L19.82 14.7309L21.4495 13.1013L21.7788 13.4307Z" fill="#868686"/>
<rect width="1.39719" height="0.465071" transform="matrix(1 0 0 -1 11.8589 14.9419)" fill="#868686"/>
<path d="M10.2285 13.4302L11.6603 14.8599C11.7695 14.969 11.9466 14.969 12.0558 14.8599L12.1873 14.7285L10.5578 13.1013L10.2285 13.4302Z" fill="#868686"/>
<path d="M12.5571 15.2907C12.5571 14.2618 13.3912 13.4277 14.42 13.4277H17.6336C18.6624 13.4277 19.4965 14.2618 19.4965 15.2907V15.7564H12.5571V15.2907Z" fill="white"/>
<path d="M12.5571 15.9424H14.257C15.1444 15.9424 15.8638 16.6618 15.8638 17.5491V21.7174V21.7174C14.0376 21.7174 12.5571 20.237 12.5571 18.4107V15.9424Z" fill="white"/>
<path d="M16.1899 17.5491C16.1899 16.6618 16.9093 15.9424 17.7967 15.9424H19.4966V18.4107C19.4966 20.237 18.0162 21.7174 16.1899 21.7174V21.7174V17.5491Z" fill="white"/>
<path d="M17.4475 13.2377C17.4475 12.8733 17.3028 12.5238 17.0451 12.2662C16.7874 12.0085 16.438 11.8638 16.0736 11.8638C15.7092 11.8638 15.3598 12.0085 15.1021 12.2662C14.8445 12.5238 14.6997 12.8733 14.6997 13.2377L16.0736 13.2377H17.4475Z" fill="#868686"/>
<rect x="16.7021" y="12.0332" width="2.1383" height="0.411761" transform="rotate(-53.8364 16.7021 12.0332)" fill="#868686"/>
<rect x="14.1475" y="10.3271" width="2.1383" height="0.411761" transform="rotate(53.84 14.1475 10.3271)" fill="#868686"/>
<path d="M28.1913 15.9783C28.1913 22.6004 22.7452 27.9688 16.0271 27.9688C9.30892 27.9688 3.86279 22.6004 3.86279 15.9783C3.86279 9.35612 9.30892 3.98779 16.0271 3.98779C22.7452 3.98779 28.1913 9.35612 28.1913 15.9783ZM6.28565 15.9783C6.28565 21.2815 10.647 25.5805 16.0271 25.5805C21.4071 25.5805 25.7685 21.2815 25.7685 15.9783C25.7685 10.6751 21.4071 6.37603 16.0271 6.37603C10.647 6.37603 6.28565 10.6751 6.28565 15.9783Z" fill="url(#paint0_linear_6103_1192)"/>
<rect x="2.125" y="17.2109" width="2.43285" height="5.90836" transform="rotate(-90 2.125 17.2109)" fill="url(#paint1_linear_6103_1192)"/>
<rect x="17.2725" y="8.1582" width="2.43285" height="5.90836" transform="rotate(-180 17.2725 8.1582)" fill="url(#paint2_linear_6103_1192)"/>
<rect x="17.2725" y="29.7217" width="2.43285" height="5.90836" transform="rotate(-180 17.2725 29.7217)" fill="url(#paint3_linear_6103_1192)"/>
<rect x="24.0142" y="17.2109" width="2.43285" height="5.90836" transform="rotate(-90 24.0142 17.2109)" fill="url(#paint4_linear_6103_1192)"/>
<defs>
<linearGradient id="paint0_linear_6103_1192" x1="16.0271" y1="3.98779" x2="16.0271" y2="27.9688" gradientUnits="userSpaceOnUse">
<stop stop-color="#ED145B"/>
<stop offset="1" stop-color="#FE0A45"/>
</linearGradient>
<linearGradient id="paint1_linear_6103_1192" x1="3.34143" y1="17.2109" x2="3.34143" y2="23.1193" gradientUnits="userSpaceOnUse">
<stop stop-color="#FF4646"/>
<stop offset="0.78125" stop-color="#ED145B"/>
</linearGradient>
<linearGradient id="paint2_linear_6103_1192" x1="18.4889" y1="8.1582" x2="18.4889" y2="14.0666" gradientUnits="userSpaceOnUse">
<stop stop-color="#FE0A45"/>
<stop offset="0.78125" stop-color="#ED145B"/>
</linearGradient>
<linearGradient id="paint3_linear_6103_1192" x1="18.4889" y1="29.7217" x2="18.4889" y2="35.63" gradientUnits="userSpaceOnUse">
<stop offset="0.729167" stop-color="#FE0A45"/>
<stop offset="1" stop-color="#ED145B"/>
</linearGradient>
<linearGradient id="paint4_linear_6103_1192" x1="25.2306" y1="17.2109" x2="25.2306" y2="23.1193" gradientUnits="userSpaceOnUse">
<stop offset="0.145833" stop-color="#FE0A45"/>
<stop offset="1" stop-color="#ED145B"/>
</linearGradient>
</defs>
</svg>
